:SAMPLES-PER-SECOND 30
:FULLY-SPECIFIED
:DEGREES
113
root  5.66409 32.913 1.84987 -58.9175 -68.9188 58.4177
RightUpLeg  -39.2725 25.4946 -18.7846
RightLeg  74.6755 -2.54898 -11.6624
RightFoot  -26.2124 0.803179 7.48515
RightToes  -1.28057e-009 0 -3.6325e-017
Spine  29.6929 -4.44926 8.09117
Spine1  2.63227 3.80983 -27.9248
HEad  -29.6154 -19.417 -2.2764
LeftShoulder1  2.06534 -7.56295 -11.4676
LeftArm  -26.8966 -24.8102 -43.651
LeftForeArm  28.0111 -20.2857 -4.41672
LeftHand  2.2561 9.6543 55.281
RightShoulder  0.670688 1.44858 5.79953
RightArm  31.2 34.9521 87.7724
RightForeArm  33.0448 25.0825 3.53703
RightHand  -3.22496 1.36174 -52.0132
LeftUpLeg  -32.6797 21.8011 -24.7272
LeftLeg  62.4278 -0.421925 -0.244122
LeftFoot  -25.9226 -0.109749 -2.12231
LeftToes  -7.27922e-012 9.28972e-011 -9.04533e-012
114
root  5.71871 32.6094 2.10358 -62.1832 -66.0024 61.6319
RightUpLeg  -40.7585 27.8107 -22.2058
RightLeg  77.6561 -2.44024 -14.4291
RightFoot  -24.897 0.444079 5.16893
RightToes  -1.28057e-009 0 -3.6325e-017
Spine  30.6826 -5.1459 8.92389
Spine1  -0.496674 3.18186 -30.7494
HEad  -24.1622 -19.2176 -6.70485
LeftShoulder1  1.24769 -4.4025 -8.31858
LeftArm  -37.3606 -31.1234 -41.012
LeftForeArm  32.8096 -29.9963 -4.55439
LeftHand  2.28694 9.62056 56.2693
RightShoulder  0.33074 0.257181 0.444516
RightArm  24.5097 43.7746 89.2627
RightForeArm  43.3811 36.9014 5.85346
RightHand  -3.41339 1.64074 -52.7605
LeftUpLeg  -33.6075 25.4968 -27.6714
LeftLeg  64.4611 -2.147 -4.14467
LeftFoot  -23.8602 -0.350616 -4.48121
LeftToes  -7.27922e-012 9.28972e-011 -9.04533e-012
115
root  5.93182 32.1628 1.96794 -52.9874 -65.1198 52.3322
RightUpLeg  -41.5377 23.6602 -20.5032
RightLeg  79.7825 -1.82646 -14.1163
RightFoot  -24.6479 0.360958 4.52016
RightToes  -1.28057e-009 0 -3.6325e-017
Spine  32.8515 -6.11237 8.04764
Spine1  -4.75154 0.231672 -26.0509
HEad  -21.3748 -16.6905 -8.77805
LeftShoulder1  0.716879 -1.83606 -5.65921
LeftArm  -44.2835 -40.3191 -38.289
LeftForeArm  40.1448 -40.5396 -7.03762
LeftHand  2.54056 9.96242 57.5782
RightShoulder  0.108181 -1.0846 -4.78714
RightArm  11.2657 51.8792 81.9313
RightForeArm  45.7216 49.5993 9.78468
RightHand  -3.11972 1.07862 -52.4628
LeftUpLeg  -35.6728 20.595 -26.5691
LeftLeg  67.966 -1.27 -2.53402
LeftFoot  -23.1534 -0.362161 -4.85463
LeftToes  -7.27922e-012 9.28972e-011 -9.04533e-012
116
root  6.17013 31.5826 1.46643 -40.068 -65.9542 39.1619
RightUpLeg  -42.5012 17.9094 -15.5571
RightLeg  81.0188 -1.06131 -10.767
RightFoot  -26.0008 0.445157 4.83879
RightToes  -1.28057e-009 0 -3.6325e-017
Spine  36.3955 -5.4876 5.30674
Spine1  -9.34273 -1.69301 -17.2569
HEad  -20.8956 -14.3302 -7.00286
LeftShoulder1  0.472095 -1.9005 -0.576487
LeftArm  -49.3429 -50.6892 -36.1073
LeftForeArm  48.5906 -51.8177 -10.5462
LeftHand  3.02726 10.7948 58.0706
RightShoulder  -0.000525617 -3.58874 -8.20176
RightArm  -10.9689 56.5341 65.5023
RightForeArm  43.8872 57.6742 13.7227
RightHand  -2.97874 0.824092 -52.2038
LeftUpLeg  -38.5313 13.2907 -22.5347
LeftLeg  71.9606 0.53247 2.95513
LeftFoot  -24.7085 -0.267329 -3.54574
LeftToes  -7.27922e-012 9.28972e-011 -9.04533e-012
117
root  6.33014 31.0185 0.702303 -23.2897 -67.7693 22.3239
RightUpLeg  -44.0368 12.289 -7.50177
RightLeg  81.0185 -0.591574 -7.07947
RightFoot  -27.4285 0.281721 3.31668
RightToes  -1.28057e-009 0 -3.6325e-017
Spine  40.2125 -2.82353 1.12633
Spine1  -13.975 -1.68444 -5.66321
HEad  -21.2725 -11.9178 -3.89546
LeftShoulder1  0.190173 -3.14099 6.42899
LeftArm  -50.0717 -61.7144 -36.8129
LeftForeArm  57.3867 -61.7797 -15.4034
LeftHand  3.11866 11.0465 57.3088
RightShoulder  -0.0181599 -6.30502 -8.95414
RightArm  -36.8708 54.6165 42.9371
RightForeArm  38.6407 58.0784 14.6286
RightHand  -3.48181 1.72064 -53.1082
LeftUpLeg  -42.4989 5.71506 -15.0873
LeftLeg  76.3603 1.54812 8.82636
LeftFoot  -26.4753 -0.401671 -4.20362
LeftToes  -7.27922e-012 9.28972e-011 -9.04533e-012
118
root  6.3423 30.6029 -0.146424 -0.0232697 -67.2346 -1.02327
RightUpLeg  -45.3705 5.08102 4.047
RightLeg  79.4931 -0.476599 -5.00225
RightFoot  -27.7908 -0.226711 -0.274888
RightToes  -1.28057e-009 0 -3.6325e-017
Spine  42.6119 0.343179 -3.47137
Spine1  -16.9622 -1.10426 10.0488
HEad  -22.2632 -7.46744 -2.55003
LeftShoulder1  -0.152373 -3.04496 12.4263
LeftArm  -37.4975 -72.7464 -47.4076
LeftForeArm  63.5276 -67.0018 -19.3553
LeftHand  2.96871 10.8416 56.7211
RightShoulder  -0.045681 -7.35444 -8.20799
RightArm  -50.7194 48.3665 28.9775
RightForeArm  31.7052 51.9572 11.9011
RightHand  -4.04452 2.54263 -55.023
LeftUpLeg  -47.4299 -2.88858 -3.54343
LeftLeg  80.9201 1.26881 12.1164
LeftFoot  -26.5839 -0.831844 -7.43209
LeftToes  -7.27922e-012 9.28972e-011 -9.04533e-012
119
root  6.18843 30.3589 -0.927574 20.1924 -61.6491 -21.9481
RightUpLeg  -46.0087 -4.12011 16.7299
RightLeg  76.8948 -0.269271 -2.8114
RightFoot  -27.8504 -0.52976 -2.34452
RightToes  -1.28057e-009 0 -3.6325e-017
Spine  43.4269 2.40611 -7.70794
Spine1  -16.0544 -1.85618 27.8098
HEad  -24.3285 -0.676811 -2.0338
LeftShoulder1  -0.314202 -2.0785 16.0574
LeftArm  8.81821 -78.4593 -88.4717
LeftForeArm  64.0579 -64.8892 -17.5656
LeftHand  3.08472 11.0043 57.1483
RightShoulder  -0.0661554 -6.81999 -7.31604
RightArm  -54.324 43.4323 25.742
RightForeArm  27.1631 43.079 8.63436
RightHand  -4.12024 2.46555 -56.3509
LeftUpLeg  -52.3692 -11.4126 9.96517
LeftLeg  84.4793 0.565567 13.3084
LeftFoot  -25.6642 -1.11661 -10.0807
LeftToes  -7.27922e-012 9.28972e-011 -9.04533e-012
